<svg xmlns="http://www.w3.org/2000/svg" viewBox="0 0 128 128">
  <defs>
    <linearGradient id="bg" x1="0%" y1="0%" x2="100%" y2="100%">
      <stop offset="0%" style="stop-color:#E17055"/>
      <stop offset="100%" style="stop-color:#D63031"/>
    </linearGradient>
  </defs>
  <rect width="128" height="128" rx="24" fill="url(#bg)"/>
  <!-- Browser tab shapes -->
  <path d="M20 50 L20 42 Q20 36 26 36 L48 36 Q54 36 54 42 L54 50" fill="rgba(255,255,255,0.9)"/>
  <path d="M54 50 L54 42 Q54 36 60 36 L82 36 Q88 36 88 42 L88 50" fill="rgba(255,255,255,0.6)"/>
  <path d="M88 50 L88 42 Q88 36 94 36 L102 36 Q108 36 108 42 L108 50" fill="rgba(255,255,255,0.3)"/>
  <!-- Browser body -->
  <rect x="20" y="50" width="88" height="48" rx="0" fill="rgba(255,255,255,0.15)"/>
  <!-- Limit bar -->
  <rect x="34" y="68" width="60" height="8" rx="4" fill="rgba(0,0,0,0.2)"/>
  <rect x="34" y="68" width="42" height="8" rx="4" fill="white"/>
  <!-- Number -->
  <text x="64" y="92" text-anchor="middle" font-family="system-ui,-apple-system,sans-serif" font-weight="700" font-size="14" fill="rgba(255,255,255,0.8)">3/5</text>
</svg>
